<?xml version="1.0" encoding="UTF-8" standalone="no"?>
<!DOCTYPE svg PUBLIC "-//W3C//DTD SVG 1.1//EN"
 "http://www.w3.org/Graphics/SVG/1.1/DTD/svg11.dtd">
<!-- Generated by graphviz version 2.40.1 (20161225.0304)
 -->
<!-- Title: dependencies Pages: 1 -->
<svg width="7090pt" height="284pt"
 viewBox="0.00 0.00 7090.00 284.00" xmlns="http://www.w3.org/2000/svg" xmlns:xlink="http://www.w3.org/1999/xlink">
<g id="graph0" class="graph" transform="scale(1 1) rotate(0) translate(4 280)">
<title>dependencies</title>
<polygon fill="#ffffff" stroke="transparent" points="-4,4 -4,-280 7086,-280 7086,4 -4,4"/>
<text text-anchor="start" x="3520.0091" y="-42.4" font-family="sans-serif" font-weight="bold" font-size="14.00" fill="#000000">Legend</text>
<polygon fill="#ffffb3" stroke="transparent" points="3307,-10 3307,-30 3327,-30 3327,-10 3307,-10"/>
<text text-anchor="start" x="3330.629" y="-15.4" font-family="sans-serif" font-size="14.00" fill="#000000"> &#160;Declarations</text>
<polygon fill="#8dd3c7" stroke="transparent" points="3420,-10 3420,-30 3440,-30 3440,-10 3420,-10"/>
<text text-anchor="start" x="3443.7251" y="-15.4" font-family="sans-serif" font-size="14.00" fill="#000000"> &#160;Module</text>
<polygon fill="#80b1d3" stroke="transparent" points="3506,-10 3506,-30 3526,-30 3526,-10 3506,-10"/>
<text text-anchor="start" x="3529.7812" y="-15.4" font-family="sans-serif" font-size="14.00" fill="#000000"> &#160;Bootstrap</text>
<polygon fill="#fdb462" stroke="transparent" points="3603,-10 3603,-30 3623,-30 3623,-10 3603,-10"/>
<text text-anchor="start" x="3626.6732" y="-15.4" font-family="sans-serif" font-size="14.00" fill="#000000"> &#160;Providers</text>
<polygon fill="#fb8072" stroke="transparent" points="3699,-10 3699,-30 3719,-30 3719,-10 3699,-10"/>
<text text-anchor="start" x="3722.7258" y="-15.4" font-family="sans-serif" font-size="14.00" fill="#000000"> &#160;Exports</text>
<g id="clust1" class="cluster">
<title>cluster_AppModule</title>
<polygon fill="none" stroke="#000000" stroke-dasharray="1,5" points="8,-70 8,-268 7074,-268 7074,-70 8,-70"/>
</g>
<g id="clust2" class="cluster">
<title>cluster_AppModule_declarations</title>
<polygon fill="none" stroke="#000000" points="470,-78 470,-130 7066,-130 7066,-78 470,-78"/>
</g>
<g id="clust41" class="cluster">
<title>cluster_AppModule_imports</title>
<polygon fill="none" stroke="#000000" points="182,-78 182,-130 462,-130 462,-78 182,-78"/>
</g>
<g id="clust43" class="cluster">
<title>cluster_AppModule_bootstrap</title>
<polygon fill="none" stroke="#000000" points="3194,-208 3194,-260 3318,-260 3318,-208 3194,-208"/>
</g>
<g id="clust44" class="cluster">
<title>cluster_AppModule_providers</title>
<polygon fill="none" stroke="#000000" points="16,-78 16,-130 174,-130 174,-78 16,-78"/>
</g>
<!-- AnswerData1Component -->
<g id="node1" class="node">
<title>AnswerData1Component</title>
<polygon fill="#ffffb3" stroke="#000000" points="7058.2921,-122 6899.7079,-122 6899.7079,-86 7058.2921,-86 7058.2921,-122"/>
<text text-anchor="middle" x="6979" y="-99.8" font-family="Times,serif" font-size="14.00" fill="#000000">AnswerData1Component</text>
</g>
<!-- AppModule -->
<g id="node39" class="node">
<title>AppModule</title>
<polygon fill="#8dd3c7" stroke="#000000" points="3297.6571,-187 3294.6571,-191 3273.6571,-191 3270.6571,-187 3214.3429,-187 3214.3429,-151 3297.6571,-151 3297.6571,-187"/>
<text text-anchor="middle" x="3256" y="-164.8" font-family="Times,serif" font-size="14.00" fill="#000000">AppModule</text>
</g>
<!-- AnswerData1Component&#45;&gt;AppModule -->
<g id="edge1" class="edge">
<title>AnswerData1Component&#45;&gt;AppModule</title>
<path fill="none" stroke="#000000" d="M6979,-122.1985C6979,-146.3563 6979,-186 6979,-186 6979,-186 3307.811,-186 3307.811,-186"/>
<polygon fill="#000000" stroke="#000000" points="3307.8111,-182.5001 3297.811,-186 3307.811,-189.5001 3307.8111,-182.5001"/>
</g>
<!-- AnswerData2Component -->
<g id="node2" class="node">
<title>AnswerData2Component</title>
<polygon fill="#ffffb3" stroke="#000000" points="6882.2921,-122 6723.7079,-122 6723.7079,-86 6882.2921,-86 6882.2921,-122"/>
<text text-anchor="middle" x="6803" y="-99.8" font-family="Times,serif" font-size="14.00" fill="#000000">AnswerData2Component</text>
</g>
<!-- AnswerData2Component&#45;&gt;AppModule -->
<g id="edge2" class="edge">
<title>AnswerData2Component&#45;&gt;AppModule</title>
<path fill="none" stroke="#000000" d="M6803,-122.3802C6803,-146.2785 6803,-185 6803,-185 6803,-185 3307.6811,-185 3307.6811,-185"/>
<polygon fill="#000000" stroke="#000000" points="3307.6811,-181.5001 3297.6811,-185 3307.681,-188.5001 3307.6811,-181.5001"/>
</g>
<!-- AnswerData3Component -->
<g id="node3" class="node">
<title>AnswerData3Component</title>
<polygon fill="#ffffb3" stroke="#000000" points="6706.2921,-122 6547.7079,-122 6547.7079,-86 6706.2921,-86 6706.2921,-122"/>
<text text-anchor="middle" x="6627" y="-99.8" font-family="Times,serif" font-size="14.00" fill="#000000">AnswerData3Component</text>
</g>
<!-- AnswerData3Component&#45;&gt;AppModule -->
<g id="edge3" class="edge">
<title>AnswerData3Component&#45;&gt;AppModule</title>
<path fill="none" stroke="#000000" d="M6627,-122.3228C6627,-145.6602 6627,-183 6627,-183 6627,-183 3307.7082,-183 3307.7082,-183"/>
<polygon fill="#000000" stroke="#000000" points="3307.7082,-179.5001 3297.7082,-183 3307.7082,-186.5001 3307.7082,-179.5001"/>
</g>
<!-- AnswerData4Component -->
<g id="node4" class="node">
<title>AnswerData4Component</title>
<polygon fill="#ffffb3" stroke="#000000" points="6530.2921,-122 6371.7079,-122 6371.7079,-86 6530.2921,-86 6530.2921,-122"/>
<text text-anchor="middle" x="6451" y="-99.8" font-family="Times,serif" font-size="14.00" fill="#000000">AnswerData4Component</text>
</g>
<!-- AnswerData4Component&#45;&gt;AppModule -->
<g id="edge4" class="edge">
<title>AnswerData4Component&#45;&gt;AppModule</title>
<path fill="none" stroke="#000000" d="M6451,-122.0908C6451,-145.1328 6451,-182 6451,-182 6451,-182 3307.8598,-182 3307.8598,-182"/>
<polygon fill="#000000" stroke="#000000" points="3307.8598,-178.5001 3297.8598,-182 3307.8597,-185.5001 3307.8598,-178.5001"/>
</g>
<!-- AnswerData5Component -->
<g id="node5" class="node">
<title>AnswerData5Component</title>
<polygon fill="#ffffb3" stroke="#000000" points="6354.2921,-122 6195.7079,-122 6195.7079,-86 6354.2921,-86 6354.2921,-122"/>
<text text-anchor="middle" x="6275" y="-99.8" font-family="Times,serif" font-size="14.00" fill="#000000">AnswerData5Component</text>
</g>
<!-- AnswerData5Component&#45;&gt;AppModule -->
<g id="edge5" class="edge">
<title>AnswerData5Component&#45;&gt;AppModule</title>
<path fill="none" stroke="#000000" d="M6275,-122.0109C6275,-144.4852 6275,-180 6275,-180 6275,-180 3307.8145,-180 3307.8145,-180"/>
<polygon fill="#000000" stroke="#000000" points="3307.8145,-176.5001 3297.8145,-180 3307.8144,-183.5001 3307.8145,-176.5001"/>
</g>
<!-- AnswerData6Component -->
<g id="node6" class="node">
<title>AnswerData6Component</title>
<polygon fill="#ffffb3" stroke="#000000" points="6178.2921,-122 6019.7079,-122 6019.7079,-86 6178.2921,-86 6178.2921,-122"/>
<text text-anchor="middle" x="6099" y="-99.8" font-family="Times,serif" font-size="14.00" fill="#000000">AnswerData6Component</text>
</g>
<!-- AnswerData6Component&#45;&gt;AppModule -->
<g id="edge6" class="edge">
<title>AnswerData6Component&#45;&gt;AppModule</title>
<path fill="none" stroke="#000000" d="M6099,-122.1554C6099,-144.3519 6099,-179 6099,-179 6099,-179 3307.8386,-179 3307.8386,-179"/>
<polygon fill="#000000" stroke="#000000" points="3307.8387,-175.5001 3297.8386,-179 3307.8386,-182.5001 3307.8387,-175.5001"/>
</g>
<!-- AnswerData7Component -->
<g id="node7" class="node">
<title>AnswerData7Component</title>
<polygon fill="#ffffb3" stroke="#000000" points="6002.2921,-122 5843.7079,-122 5843.7079,-86 6002.2921,-86 6002.2921,-122"/>
<text text-anchor="middle" x="5923" y="-99.8" font-family="Times,serif" font-size="14.00" fill="#000000">AnswerData7Component</text>
</g>
<!-- AnswerData7Component&#45;&gt;AppModule -->
<g id="edge7" class="edge">
<title>AnswerData7Component&#45;&gt;AppModule</title>
<path fill="none" stroke="#000000" d="M5923,-122.0449C5923,-143.6623 5923,-177 5923,-177 5923,-177 3307.8922,-177 3307.8922,-177"/>
<polygon fill="#000000" stroke="#000000" points="3307.8922,-173.5001 3297.8922,-177 3307.8922,-180.5001 3307.8922,-173.5001"/>
</g>
<!-- AppComponent -->
<g id="node8" class="node">
<title>AppComponent</title>
<polygon fill="#ffffb3" stroke="#000000" points="5825.9399,-122 5720.0601,-122 5720.0601,-86 5825.9399,-86 5825.9399,-122"/>
<text text-anchor="middle" x="5773" y="-99.8" font-family="Times,serif" font-size="14.00" fill="#000000">AppComponent</text>
</g>
<!-- AppComponent&#45;&gt;AppModule -->
<g id="edge8" class="edge">
<title>AppComponent&#45;&gt;AppModule</title>
<path fill="none" stroke="#000000" d="M5773,-122.1686C5773,-143.498 5773,-176 5773,-176 5773,-176 3307.8471,-176 3307.8471,-176"/>
<polygon fill="#000000" stroke="#000000" points="3307.8471,-172.5001 3297.8471,-176 3307.847,-179.5001 3307.8471,-172.5001"/>
</g>
<!-- AssignSurveyComponent -->
<g id="node9" class="node">
<title>AssignSurveyComponent</title>
<polygon fill="#ffffb3" stroke="#000000" points="5701.8766,-122 5542.1234,-122 5542.1234,-86 5701.8766,-86 5701.8766,-122"/>
<text text-anchor="middle" x="5622" y="-99.8" font-family="Times,serif" font-size="14.00" fill="#000000">AssignSurveyComponent</text>
</g>
<!-- AssignSurveyComponent&#45;&gt;AppModule -->
<g id="edge9" class="edge">
<title>AssignSurveyComponent&#45;&gt;AppModule</title>
<path fill="none" stroke="#000000" d="M5622,-122.2843C5622,-143.3211 5622,-175 5622,-175 5622,-175 3307.8184,-175 3307.8184,-175"/>
<polygon fill="#000000" stroke="#000000" points="3307.8184,-171.5001 3297.8184,-175 3307.8184,-178.5001 3307.8184,-171.5001"/>
</g>
<!-- AssociateFeedbackFormComponent -->
<g id="node10" class="node">
<title>AssociateFeedbackFormComponent</title>
<polygon fill="#ffffb3" stroke="#000000" points="5523.7282,-122 5304.2718,-122 5304.2718,-86 5523.7282,-86 5523.7282,-122"/>
<text text-anchor="middle" x="5414" y="-99.8" font-family="Times,serif" font-size="14.00" fill="#000000">AssociateFeedbackFormComponent</text>
</g>
<!-- AssociateFeedbackFormComponent&#45;&gt;AppModule -->
<g id="edge10" class="edge">
<title>AssociateFeedbackFormComponent&#45;&gt;AppModule</title>
<path fill="none" stroke="#000000" d="M5450.6213,-122.1289C5450.6213,-142.5724 5450.6213,-173 5450.6213,-173 5450.6213,-173 3307.8808,-173 3307.8808,-173"/>
<polygon fill="#000000" stroke="#000000" points="3307.8808,-169.5001 3297.8808,-173 3307.8808,-176.5001 3307.8808,-169.5001"/>
</g>
<!-- AssociateFeedbackFormComponent&#45;&gt;AppModule -->
<g id="edge11" class="edge">
<title>AssociateFeedbackFormComponent&#45;&gt;AppModule</title>
<path fill="none" stroke="#000000" d="M5377.3787,-122.2228C5377.3787,-142.3652 5377.3787,-172 5377.3787,-172 5377.3787,-172 3307.8985,-172 3307.8985,-172"/>
<polygon fill="#000000" stroke="#000000" points="3307.8985,-168.5001 3297.8985,-172 3307.8984,-175.5001 3307.8985,-168.5001"/>
</g>
<!-- AuthLoadingComponent -->
<g id="node11" class="node">
<title>AuthLoadingComponent</title>
<polygon fill="#ffffb3" stroke="#000000" points="5285.9874,-122 5130.0126,-122 5130.0126,-86 5285.9874,-86 5285.9874,-122"/>
<text text-anchor="middle" x="5208" y="-99.8" font-family="Times,serif" font-size="14.00" fill="#000000">AuthLoadingComponent</text>
</g>
<!-- AuthLoadingComponent&#45;&gt;AppModule -->
<g id="edge12" class="edge">
<title>AuthLoadingComponent&#45;&gt;AppModule</title>
<path fill="none" stroke="#000000" d="M5208,-122.0348C5208,-141.5762 5208,-170 5208,-170 5208,-170 3307.6734,-170 3307.6734,-170"/>
<polygon fill="#000000" stroke="#000000" points="3307.6734,-166.5001 3297.6734,-170 3307.6733,-173.5001 3307.6734,-166.5001"/>
</g>
<!-- AutodataComponent -->
<g id="node12" class="node">
<title>AutodataComponent</title>
<polygon fill="#ffffb3" stroke="#000000" points="5112.1499,-122 4979.8501,-122 4979.8501,-86 5112.1499,-86 5112.1499,-122"/>
<text text-anchor="middle" x="5046" y="-99.8" font-family="Times,serif" font-size="14.00" fill="#000000">AutodataComponent</text>
</g>
<!-- AutodataComponent&#45;&gt;AppModule -->
<g id="edge13" class="edge">
<title>AutodataComponent&#45;&gt;AppModule</title>
<path fill="none" stroke="#000000" d="M5023.8918,-122.2222C5023.8918,-140.8285 5023.8918,-167 5023.8918,-167 5023.8918,-167 3307.9572,-167 3307.9572,-167"/>
<polygon fill="#000000" stroke="#000000" points="3307.9573,-163.5001 3297.9572,-167 3307.9572,-170.5001 3307.9573,-163.5001"/>
</g>
<!-- AutodataComponent&#45;&gt;AppModule -->
<g id="edge14" class="edge">
<title>AutodataComponent&#45;&gt;AppModule</title>
<path fill="none" stroke="#000000" d="M5068.1082,-122.1061C5068.1082,-141.3391 5068.1082,-169 5068.1082,-169 5068.1082,-169 3307.6883,-169 3307.6883,-169"/>
<polygon fill="#000000" stroke="#000000" points="3307.6884,-165.5001 3297.6883,-169 3307.6883,-172.5001 3307.6884,-165.5001"/>
</g>
<!-- CohortModalComponent -->
<g id="node13" class="node">
<title>CohortModalComponent</title>
<polygon fill="#ffffb3" stroke="#000000" points="4961.2702,-122 4804.7298,-122 4804.7298,-86 4961.2702,-86 4961.2702,-122"/>
<text text-anchor="middle" x="4883" y="-99.8" font-family="Times,serif" font-size="14.00" fill="#000000">CohortModalComponent</text>
</g>
<!-- CohortModalComponent&#45;&gt;AppModule -->
<g id="edge15" class="edge">
<title>CohortModalComponent&#45;&gt;AppModule</title>
<path fill="none" stroke="#000000" d="M4883,-122.2667C4883,-140.5552 4883,-166 4883,-166 4883,-166 3307.8532,-166 3307.8532,-166"/>
<polygon fill="#000000" stroke="#000000" points="3307.8532,-162.5001 3297.8532,-166 3307.8532,-169.5001 3307.8532,-162.5001"/>
</g>
<!-- DaynoticeGraphComponent -->
<g id="node14" class="node">
<title>DaynoticeGraphComponent</title>
<polygon fill="#ffffb3" stroke="#000000" points="4786.8459,-122 4613.1541,-122 4613.1541,-86 4786.8459,-86 4786.8459,-122"/>
<text text-anchor="middle" x="4700" y="-99.8" font-family="Times,serif" font-size="14.00" fill="#000000">DaynoticeGraphComponent</text>
</g>
<!-- DaynoticeGraphComponent&#45;&gt;AppModule -->
<g id="edge16" class="edge">
<title>DaynoticeGraphComponent&#45;&gt;AppModule</title>
<path fill="none" stroke="#000000" d="M4671.0257,-122.0225C4671.0257,-139.3734 4671.0257,-163 4671.0257,-163 4671.0257,-163 3307.965,-163 3307.965,-163"/>
<polygon fill="#000000" stroke="#000000" points="3307.965,-159.5001 3297.965,-163 3307.965,-166.5001 3307.965,-159.5001"/>
</g>
<!-- DaynoticeGraphComponent&#45;&gt;AppModule -->
<g id="edge17" class="edge">
<title>DaynoticeGraphComponent&#45;&gt;AppModule</title>
<path fill="none" stroke="#000000" d="M4728.9743,-122.002C4728.9743,-139.6754 4728.9743,-164 4728.9743,-164 4728.9743,-164 3307.7106,-164 3307.7106,-164"/>
<polygon fill="#000000" stroke="#000000" points="3307.7106,-160.5001 3297.7106,-164 3307.7105,-167.5001 3307.7106,-160.5001"/>
</g>
<!-- DaynoticeReportComponent -->
<g id="node15" class="node">
<title>DaynoticeReportComponent</title>
<polygon fill="#ffffb3" stroke="#000000" points="4595.4664,-122 4418.5336,-122 4418.5336,-86 4595.4664,-86 4595.4664,-122"/>
<text text-anchor="middle" x="4507" y="-99.8" font-family="Times,serif" font-size="14.00" fill="#000000">DaynoticeReportComponent</text>
</g>
<!-- DaynoticeReportComponent&#45;&gt;AppModule -->
<g id="edge18" class="edge">
<title>DaynoticeReportComponent&#45;&gt;AppModule</title>
<path fill="none" stroke="#000000" d="M4507,-122.0336C4507,-139.0597 4507,-162 4507,-162 4507,-162 3307.9807,-162 3307.9807,-162"/>
<polygon fill="#000000" stroke="#000000" points="3307.9808,-158.5001 3297.9807,-162 3307.9807,-165.5001 3307.9808,-158.5001"/>
</g>
<!-- FakeServiceComponent -->
<g id="node16" class="node">
<title>FakeServiceComponent</title>
<polygon fill="#ffffb3" stroke="#000000" points="4400.0226,-122 4249.9774,-122 4249.9774,-86 4400.0226,-86 4400.0226,-122"/>
<text text-anchor="middle" x="4325" y="-99.8" font-family="Times,serif" font-size="14.00" fill="#000000">FakeServiceComponent</text>
</g>
<!-- FakeServiceComponent&#45;&gt;AppModule -->
<g id="edge19" class="edge">
<title>FakeServiceComponent&#45;&gt;AppModule</title>
<path fill="none" stroke="#000000" d="M4325,-122.027C4325,-138.3976 4325,-160 4325,-160 4325,-160 3307.9061,-160 3307.9061,-160"/>
<polygon fill="#000000" stroke="#000000" points="3307.9061,-156.5001 3297.9061,-160 3307.906,-163.5001 3307.9061,-156.5001"/>
</g>
<!-- FeedbackReportComponent -->
<g id="node17" class="node">
<title>FeedbackReportComponent</title>
<polygon fill="#ffffb3" stroke="#000000" points="4231.5758,-122 4058.4242,-122 4058.4242,-86 4231.5758,-86 4231.5758,-122"/>
<text text-anchor="middle" x="4145" y="-99.8" font-family="Times,serif" font-size="14.00" fill="#000000">FeedbackReportComponent</text>
</g>
<!-- FeedbackReportComponent&#45;&gt;AppModule -->
<g id="edge20" class="edge">
<title>FeedbackReportComponent&#45;&gt;AppModule</title>
<path fill="none" stroke="#000000" d="M4145,-122.0091C4145,-138.0494 4145,-159 4145,-159 4145,-159 3307.6859,-159 3307.6859,-159"/>
<polygon fill="#000000" stroke="#000000" points="3307.686,-155.5001 3297.6859,-159 3307.6859,-162.5001 3307.686,-155.5001"/>
</g>
<!-- HomeComponent -->
<g id="node18" class="node">
<title>HomeComponent</title>
<polygon fill="#ffffb3" stroke="#000000" points="4040.5451,-122 3925.4549,-122 3925.4549,-86 4040.5451,-86 4040.5451,-122"/>
<text text-anchor="middle" x="3983" y="-99.8" font-family="Times,serif" font-size="14.00" fill="#000000">HomeComponent</text>
</g>
<!-- HomeComponent&#45;&gt;AppModule -->
<g id="edge21" class="edge">
<title>HomeComponent&#45;&gt;AppModule</title>
<path fill="none" stroke="#000000" d="M3983,-122.2396C3983,-137.5706 3983,-157 3983,-157 3983,-157 3307.6978,-157 3307.6978,-157"/>
<polygon fill="#000000" stroke="#000000" points="3307.6979,-153.5001 3297.6978,-157 3307.6978,-160.5001 3307.6979,-153.5001"/>
</g>
<!-- InterviewComponent -->
<g id="node19" class="node">
<title>InterviewComponent</title>
<polygon fill="#ffffb3" stroke="#000000" points="3907.4706,-122 3772.5294,-122 3772.5294,-86 3907.4706,-86 3907.4706,-122"/>
<text text-anchor="middle" x="3840" y="-99.8" font-family="Times,serif" font-size="14.00" fill="#000000">InterviewComponent</text>
</g>
<!-- InterviewComponent&#45;&gt;AppModule -->
<g id="edge22" class="edge">
<title>InterviewComponent&#45;&gt;AppModule</title>
<path fill="none" stroke="#000000" d="M3840,-122.1871C3840,-137.1824 3840,-156 3840,-156 3840,-156 3307.9998,-156 3307.9998,-156"/>
<polygon fill="#000000" stroke="#000000" points="3307.9999,-152.5001 3297.9998,-156 3307.9998,-159.5001 3307.9999,-152.5001"/>
</g>
<!-- InterviewListComponent -->
<g id="node20" class="node">
<title>InterviewListComponent</title>
<polygon fill="#ffffb3" stroke="#000000" points="3754.2492,-122 3597.7508,-122 3597.7508,-86 3754.2492,-86 3754.2492,-122"/>
<text text-anchor="middle" x="3676" y="-99.8" font-family="Times,serif" font-size="14.00" fill="#000000">InterviewListComponent</text>
</g>
<!-- InterviewListComponent&#45;&gt;AppModule -->
<g id="edge23" class="edge">
<title>InterviewListComponent&#45;&gt;AppModule</title>
<path fill="none" stroke="#000000" d="M3676,-122.0511C3676,-136.373 3676,-154 3676,-154 3676,-154 3307.8067,-154 3307.8067,-154"/>
<polygon fill="#000000" stroke="#000000" points="3307.8067,-150.5001 3297.8067,-154 3307.8067,-157.5001 3307.8067,-150.5001"/>
</g>
<!-- InterviewListForCurUserComponent -->
<g id="node21" class="node">
<title>InterviewListForCurUserComponent</title>
<polygon fill="#ffffb3" stroke="#000000" points="3579.6161,-122 3356.3839,-122 3356.3839,-86 3579.6161,-86 3579.6161,-122"/>
<text text-anchor="middle" x="3468" y="-99.8" font-family="Times,serif" font-size="14.00" fill="#000000">InterviewListForCurUserComponent</text>
</g>
<!-- InterviewListForCurUserComponent&#45;&gt;AppModule -->
<g id="edge24" class="edge">
<title>InterviewListForCurUserComponent&#45;&gt;AppModule</title>
<path fill="none" stroke="#000000" d="M3468,-122.2458C3468,-136.1772 3468,-153 3468,-153 3468,-153 3307.8844,-153 3307.8844,-153"/>
<polygon fill="#000000" stroke="#000000" points="3307.8844,-149.5001 3297.8844,-153 3307.8843,-156.5001 3307.8844,-149.5001"/>
</g>
<!-- JobdescReportComponent -->
<g id="node22" class="node">
<title>JobdescReportComponent</title>
<polygon fill="#ffffb3" stroke="#000000" points="3337.7534,-122 3174.2466,-122 3174.2466,-86 3337.7534,-86 3337.7534,-122"/>
<text text-anchor="middle" x="3256" y="-99.8" font-family="Times,serif" font-size="14.00" fill="#000000">JobdescReportComponent</text>
</g>
<!-- JobdescReportComponent&#45;&gt;AppModule -->
<g id="edge25" class="edge">
<title>JobdescReportComponent&#45;&gt;AppModule</title>
<path fill="none" stroke="#000000" d="M3269.9427,-122.1061C3269.9427,-122.1061 3269.9427,-140.991 3269.9427,-140.991"/>
<polygon fill="#000000" stroke="#000000" points="3266.4428,-140.9909 3269.9427,-150.991 3273.4428,-140.991 3266.4428,-140.9909"/>
</g>
<!-- JobdescReportComponent&#45;&gt;AppModule -->
<g id="edge26" class="edge">
<title>JobdescReportComponent&#45;&gt;AppModule</title>
<path fill="none" stroke="#000000" d="M3242.0573,-122.1061C3242.0573,-122.1061 3242.0573,-140.991 3242.0573,-140.991"/>
<polygon fill="#000000" stroke="#000000" points="3238.5574,-140.9909 3242.0573,-150.991 3245.5574,-140.991 3238.5574,-140.9909"/>
</g>
<!-- LoginComponent -->
<g id="node23" class="node">
<title>LoginComponent</title>
<polygon fill="#ffffb3" stroke="#000000" points="3156.2758,-122 3041.7242,-122 3041.7242,-86 3156.2758,-86 3156.2758,-122"/>
<text text-anchor="middle" x="3099" y="-99.8" font-family="Times,serif" font-size="14.00" fill="#000000">LoginComponent</text>
</g>
<!-- LoginComponent&#45;&gt;AppModule -->
<g id="edge27" class="edge">
<title>LoginComponent&#45;&gt;AppModule</title>
<path fill="none" stroke="#000000" d="M3099,-122.2458C3099,-136.1772 3099,-153 3099,-153 3099,-153 3204.3391,-153 3204.3391,-153"/>
<polygon fill="#000000" stroke="#000000" points="3204.3391,-156.5001 3214.3391,-153 3204.339,-149.5001 3204.3391,-156.5001"/>
</g>
<!-- ManageComponent -->
<g id="node24" class="node">
<title>ManageComponent</title>
<polygon fill="#ffffb3" stroke="#000000" points="3023.4215,-122 2896.5785,-122 2896.5785,-86 3023.4215,-86 3023.4215,-122"/>
<text text-anchor="middle" x="2960" y="-99.8" font-family="Times,serif" font-size="14.00" fill="#000000">ManageComponent</text>
</g>
<!-- ManageComponent&#45;&gt;AppModule -->
<g id="edge28" class="edge">
<title>ManageComponent&#45;&gt;AppModule</title>
<path fill="none" stroke="#000000" d="M2960,-122.0511C2960,-136.373 2960,-154 2960,-154 2960,-154 3204.2182,-154 3204.2182,-154"/>
<polygon fill="#000000" stroke="#000000" points="3204.2183,-157.5001 3214.2182,-154 3204.2182,-150.5001 3204.2183,-157.5001"/>
</g>
<!-- MngrSubAssociatesComponent -->
<g id="node25" class="node">
<title>MngrSubAssociatesComponent</title>
<polygon fill="#ffffb3" stroke="#000000" points="2879.0856,-122 2684.9144,-122 2684.9144,-86 2879.0856,-86 2879.0856,-122"/>
<text text-anchor="middle" x="2782" y="-99.8" font-family="Times,serif" font-size="14.00" fill="#000000">MngrSubAssociatesComponent</text>
</g>
<!-- MngrSubAssociatesComponent&#45;&gt;AppModule -->
<g id="edge29" class="edge">
<title>MngrSubAssociatesComponent&#45;&gt;AppModule</title>
<path fill="none" stroke="#000000" d="M2782,-122.1871C2782,-137.1824 2782,-156 2782,-156 2782,-156 3203.9357,-156 3203.9357,-156"/>
<polygon fill="#000000" stroke="#000000" points="3203.9357,-159.5001 3213.9357,-156 3203.9356,-152.5001 3203.9357,-159.5001"/>
</g>
<!-- NavbarComponent -->
<g id="node26" class="node">
<title>NavbarComponent</title>
<polygon fill="#ffffb3" stroke="#000000" points="2667.0297,-122 2544.9703,-122 2544.9703,-86 2667.0297,-86 2667.0297,-122"/>
<text text-anchor="middle" x="2606" y="-99.8" font-family="Times,serif" font-size="14.00" fill="#000000">NavbarComponent</text>
</g>
<!-- NavbarComponent&#45;&gt;AppModule -->
<g id="edge30" class="edge">
<title>NavbarComponent&#45;&gt;AppModule</title>
<path fill="none" stroke="#000000" d="M2606,-122.2396C2606,-137.5706 2606,-157 2606,-157 2606,-157 3203.8525,-157 3203.8525,-157"/>
<polygon fill="#000000" stroke="#000000" points="3203.8525,-160.5001 3213.8525,-157 3203.8525,-153.5001 3203.8525,-160.5001"/>
</g>
<!-- NewInterviewComponent -->
<g id="node27" class="node">
<title>NewInterviewComponent</title>
<polygon fill="#ffffb3" stroke="#000000" points="2526.8989,-122 2365.1011,-122 2365.1011,-86 2526.8989,-86 2526.8989,-122"/>
<text text-anchor="middle" x="2446" y="-99.8" font-family="Times,serif" font-size="14.00" fill="#000000">NewInterviewComponent</text>
</g>
<!-- NewInterviewComponent&#45;&gt;AppModule -->
<g id="edge31" class="edge">
<title>NewInterviewComponent&#45;&gt;AppModule</title>
<path fill="none" stroke="#000000" d="M2446,-122.0091C2446,-138.0494 2446,-159 2446,-159 2446,-159 3204.1565,-159 3204.1565,-159"/>
<polygon fill="#000000" stroke="#000000" points="3204.1566,-162.5001 3214.1565,-159 3204.1565,-155.5001 3204.1566,-162.5001"/>
</g>
<!-- ProfileInfoComponent -->
<g id="node28" class="node">
<title>ProfileInfoComponent</title>
<polygon fill="#ffffb3" stroke="#000000" points="2347.2534,-122 2204.7466,-122 2204.7466,-86 2347.2534,-86 2347.2534,-122"/>
<text text-anchor="middle" x="2276" y="-99.8" font-family="Times,serif" font-size="14.00" fill="#000000">ProfileInfoComponent</text>
</g>
<!-- ProfileInfoComponent&#45;&gt;AppModule -->
<g id="edge32" class="edge">
<title>ProfileInfoComponent&#45;&gt;AppModule</title>
<path fill="none" stroke="#000000" d="M2276,-122.027C2276,-138.3976 2276,-160 2276,-160 2276,-160 3204.2041,-160 3204.2041,-160"/>
<polygon fill="#000000" stroke="#000000" points="3204.2042,-163.5001 3214.2041,-160 3204.2041,-156.5001 3204.2042,-163.5001"/>
</g>
<!-- RegistrationComponent -->
<g id="node29" class="node">
<title>RegistrationComponent</title>
<polygon fill="#ffffb3" stroke="#000000" points="2186.766,-122 2037.234,-122 2037.234,-86 2186.766,-86 2186.766,-122"/>
<text text-anchor="middle" x="2112" y="-99.8" font-family="Times,serif" font-size="14.00" fill="#000000">RegistrationComponent</text>
</g>
<!-- RegistrationComponent&#45;&gt;AppModule -->
<g id="edge33" class="edge">
<title>RegistrationComponent&#45;&gt;AppModule</title>
<path fill="none" stroke="#000000" d="M2112,-122.0336C2112,-139.0597 2112,-162 2112,-162 2112,-162 3204.2688,-162 3204.2688,-162"/>
<polygon fill="#000000" stroke="#000000" points="3204.2688,-165.5001 3214.2688,-162 3204.2687,-158.5001 3204.2688,-165.5001"/>
</g>
<!-- ReportsComponent -->
<g id="node30" class="node">
<title>ReportsComponent</title>
<polygon fill="#ffffb3" stroke="#000000" points="2019.3795,-122 1894.6205,-122 1894.6205,-86 2019.3795,-86 2019.3795,-122"/>
<text text-anchor="middle" x="1957" y="-99.8" font-family="Times,serif" font-size="14.00" fill="#000000">ReportsComponent</text>
</g>
<!-- ReportsComponent&#45;&gt;AppModule -->
<g id="edge34" class="edge">
<title>ReportsComponent&#45;&gt;AppModule</title>
<path fill="none" stroke="#000000" d="M1957,-122.0225C1957,-139.3734 1957,-163 1957,-163 1957,-163 3204.2512,-163 3204.2512,-163"/>
<polygon fill="#000000" stroke="#000000" points="3204.2512,-166.5001 3214.2512,-163 3204.2511,-159.5001 3204.2512,-166.5001"/>
</g>
<!-- StagingMgrFeedbackComponent -->
<g id="node31" class="node">
<title>StagingMgrFeedbackComponent</title>
<polygon fill="#ffffb3" stroke="#000000" points="1876.8571,-122 1675.1429,-122 1675.1429,-86 1876.8571,-86 1876.8571,-122"/>
<text text-anchor="middle" x="1776" y="-99.8" font-family="Times,serif" font-size="14.00" fill="#000000">StagingMgrFeedbackComponent</text>
</g>
<!-- StagingMgrFeedbackComponent&#45;&gt;AppModule -->
<g id="edge35" class="edge">
<title>StagingMgrFeedbackComponent&#45;&gt;AppModule</title>
<path fill="none" stroke="#000000" d="M1776,-122.302C1776,-140.2699 1776,-165 1776,-165 1776,-165 3204.0905,-165 3204.0905,-165"/>
<polygon fill="#000000" stroke="#000000" points="3204.0905,-168.5001 3214.0905,-165 3204.0905,-161.5001 3204.0905,-168.5001"/>
</g>
<!-- SubMan2CohortComponent -->
<g id="node32" class="node">
<title>SubMan2CohortComponent</title>
<polygon fill="#ffffb3" stroke="#000000" points="1657.1623,-122 1482.8377,-122 1482.8377,-86 1657.1623,-86 1657.1623,-122"/>
<text text-anchor="middle" x="1570" y="-99.8" font-family="Times,serif" font-size="14.00" fill="#000000">SubMan2CohortComponent</text>
</g>
<!-- SubMan2CohortComponent&#45;&gt;AppModule -->
<g id="edge36" class="edge">
<title>SubMan2CohortComponent&#45;&gt;AppModule</title>
<path fill="none" stroke="#000000" d="M1570,-122.2667C1570,-140.5552 1570,-166 1570,-166 1570,-166 3204.3234,-166 3204.3234,-166"/>
<polygon fill="#000000" stroke="#000000" points="3204.3234,-169.5001 3214.3234,-166 3204.3233,-162.5001 3204.3234,-169.5001"/>
</g>
<!-- SurveyCreatorComponent -->
<g id="node33" class="node">
<title>SurveyCreatorComponent</title>
<polygon fill="#ffffb3" stroke="#000000" points="1464.4678,-122 1301.5322,-122 1301.5322,-86 1464.4678,-86 1464.4678,-122"/>
<text text-anchor="middle" x="1383" y="-99.8" font-family="Times,serif" font-size="14.00" fill="#000000">SurveyCreatorComponent</text>
</g>
<!-- SurveyCreatorComponent&#45;&gt;AppModule -->
<g id="edge37" class="edge">
<title>SurveyCreatorComponent&#45;&gt;AppModule</title>
<path fill="none" stroke="#000000" d="M1399.2968,-122.1061C1399.2968,-141.3391 1399.2968,-169 1399.2968,-169 1399.2968,-169 3204.1753,-169 3204.1753,-169"/>
<polygon fill="#000000" stroke="#000000" points="3204.1754,-172.5001 3214.1753,-169 3204.1753,-165.5001 3204.1754,-172.5001"/>
</g>
<!-- SurveyCreatorComponent&#45;&gt;AppModule -->
<g id="edge38" class="edge">
<title>SurveyCreatorComponent&#45;&gt;AppModule</title>
<path fill="none" stroke="#000000" d="M1334.1097,-122.2228C1334.1097,-142.3652 1334.1097,-172 1334.1097,-172 1334.1097,-172 3204.0712,-172 3204.0712,-172"/>
<polygon fill="#000000" stroke="#000000" points="3204.0713,-175.5001 3214.0712,-172 3204.0712,-168.5001 3204.0713,-175.5001"/>
</g>
<!-- SurveyCreatorComponent&#45;&gt;AppModule -->
<g id="edge39" class="edge">
<title>SurveyCreatorComponent&#45;&gt;AppModule</title>
<path fill="none" stroke="#000000" d="M1366.7032,-122.308C1366.7032,-142.1455 1366.7032,-171 1366.7032,-171 1366.7032,-171 3204.3375,-171 3204.3375,-171"/>
<polygon fill="#000000" stroke="#000000" points="3204.3375,-174.5001 3214.3375,-171 3204.3374,-167.5001 3204.3375,-174.5001"/>
</g>
<!-- SurveyCreatorComponent&#45;&gt;AppModule -->
<g id="edge40" class="edge">
<title>SurveyCreatorComponent&#45;&gt;AppModule</title>
<path fill="none" stroke="#000000" d="M1431.8903,-122.1686C1431.8903,-141.0898 1431.8903,-168 1431.8903,-168 1431.8903,-168 3204.0356,-168 3204.0356,-168"/>
<polygon fill="#000000" stroke="#000000" points="3204.0356,-171.5001 3214.0356,-168 3204.0355,-164.5001 3204.0356,-171.5001"/>
</g>
<!-- SurveyDataComponent -->
<g id="node34" class="node">
<title>SurveyDataComponent</title>
<polygon fill="#ffffb3" stroke="#000000" points="1283.9172,-122 1136.0828,-122 1136.0828,-86 1283.9172,-86 1283.9172,-122"/>
<text text-anchor="middle" x="1210" y="-99.8" font-family="Times,serif" font-size="14.00" fill="#000000">SurveyDataComponent</text>
</g>
<!-- SurveyDataComponent&#45;&gt;AppModule -->
<g id="edge41" class="edge">
<title>SurveyDataComponent&#45;&gt;AppModule</title>
<path fill="none" stroke="#000000" d="M1210,-122.0267C1210,-142.7672 1210,-174 1210,-174 1210,-174 3204.2032,-174 3204.2032,-174"/>
<polygon fill="#000000" stroke="#000000" points="3204.2033,-177.5001 3214.2032,-174 3204.2032,-170.5001 3204.2033,-177.5001"/>
</g>
<!-- SurveyGridComponent -->
<g id="node35" class="node">
<title>SurveyGridComponent</title>
<polygon fill="#ffffb3" stroke="#000000" points="1118.1484,-122 971.8516,-122 971.8516,-86 1118.1484,-86 1118.1484,-122"/>
<text text-anchor="middle" x="1045" y="-99.8" font-family="Times,serif" font-size="14.00" fill="#000000">SurveyGridComponent</text>
</g>
<!-- SurveyGridComponent&#45;&gt;AppModule -->
<g id="edge42" class="edge">
<title>SurveyGridComponent&#45;&gt;AppModule</title>
<path fill="none" stroke="#000000" d="M1045,-122.2843C1045,-143.3211 1045,-175 1045,-175 1045,-175 3204.2931,-175 3204.2931,-175"/>
<polygon fill="#000000" stroke="#000000" points="3204.2931,-178.5001 3214.2931,-175 3204.2931,-171.5001 3204.2931,-178.5001"/>
</g>
<!-- SurveyListComponent -->
<g id="node36" class="node">
<title>SurveyListComponent</title>
<polygon fill="#ffffb3" stroke="#000000" points="953.2688,-122 810.7312,-122 810.7312,-86 953.2688,-86 953.2688,-122"/>
<text text-anchor="middle" x="882" y="-99.8" font-family="Times,serif" font-size="14.00" fill="#000000">SurveyListComponent</text>
</g>
<!-- SurveyListComponent&#45;&gt;AppModule -->
<g id="edge43" class="edge">
<title>SurveyListComponent&#45;&gt;AppModule</title>
<path fill="none" stroke="#000000" d="M882,-122.0449C882,-143.6623 882,-177 882,-177 882,-177 3204.2924,-177 3204.2924,-177"/>
<polygon fill="#000000" stroke="#000000" points="3204.2925,-180.5001 3214.2924,-177 3204.2924,-173.5001 3204.2925,-180.5001"/>
</g>
<!-- SurveyRespondentsComponent -->
<g id="node37" class="node">
<title>SurveyRespondentsComponent</title>
<polygon fill="#ffffb3" stroke="#000000" points="792.0364,-122 599.9636,-122 599.9636,-86 792.0364,-86 792.0364,-122"/>
<text text-anchor="middle" x="696" y="-99.8" font-family="Times,serif" font-size="14.00" fill="#000000">SurveyRespondentsComponent</text>
</g>
<!-- SurveyRespondentsComponent&#45;&gt;AppModule -->
<g id="edge44" class="edge">
<title>SurveyRespondentsComponent&#45;&gt;AppModule</title>
<path fill="none" stroke="#000000" d="M696,-122.2921C696,-144.2057 696,-178 696,-178 696,-178 3204.2285,-178 3204.2285,-178"/>
<polygon fill="#000000" stroke="#000000" points="3204.2285,-181.5001 3214.2285,-178 3204.2285,-174.5001 3204.2285,-181.5001"/>
</g>
<!-- TimestampPipe -->
<g id="node38" class="node">
<title>TimestampPipe</title>
<polygon fill="#ffffb3" stroke="#000000" points="581.8767,-122 478.1233,-122 478.1233,-86 581.8767,-86 581.8767,-122"/>
<text text-anchor="middle" x="530" y="-99.8" font-family="Times,serif" font-size="14.00" fill="#000000">TimestampPipe</text>
</g>
<!-- TimestampPipe&#45;&gt;AppModule -->
<g id="edge45" class="edge">
<title>TimestampPipe&#45;&gt;AppModule</title>
<path fill="none" stroke="#000000" d="M530,-122.0109C530,-144.4852 530,-180 530,-180 530,-180 3204.2719,-180 3204.2719,-180"/>
<polygon fill="#000000" stroke="#000000" points="3204.2719,-183.5001 3214.2719,-180 3204.2719,-176.5001 3204.2719,-183.5001"/>
</g>
<!-- AppComponent  -->
<g id="node42" class="node">
<title>AppComponent </title>
<polygon fill="#80b1d3" stroke="#000000" points="3310.439,-252 3201.561,-252 3201.561,-216 3310.439,-216 3310.439,-252"/>
<text text-anchor="middle" x="3256" y="-229.8" font-family="Times,serif" font-size="14.00" fill="#000000">AppComponent </text>
</g>
<!-- AppModule&#45;&gt;AppComponent  -->
<g id="edge49" class="edge">
<title>AppModule&#45;&gt;AppComponent </title>
<path fill="none" stroke="#000000" stroke-dasharray="1,5" d="M3256,-187.1061C3256,-187.1061 3256,-205.991 3256,-205.991"/>
<polygon fill="#000000" stroke="#000000" points="3252.5001,-205.9909 3256,-215.991 3259.5001,-205.991 3252.5001,-205.9909"/>
</g>
<!-- AppRoutingModule -->
<g id="node40" class="node">
<title>AppRoutingModule</title>
<polygon fill="#8dd3c7" stroke="#000000" points="454.2744,-122 451.2744,-126 430.2744,-126 427.2744,-122 325.7256,-122 325.7256,-86 454.2744,-86 454.2744,-122"/>
<text text-anchor="middle" x="390" y="-99.8" font-family="Times,serif" font-size="14.00" fill="#000000">AppRoutingModule</text>
</g>
<!-- AppRoutingModule&#45;&gt;AppModule -->
<g id="edge46" class="edge">
<title>AppRoutingModule&#45;&gt;AppModule</title>
<path fill="none" stroke="#000000" d="M411.4624,-122.2479C411.4624,-145.0179 411.4624,-181 411.4624,-181 411.4624,-181 3204.1387,-181 3204.1387,-181"/>
<polygon fill="#000000" stroke="#000000" points="3204.1388,-184.5001 3214.1387,-181 3204.1387,-177.5001 3204.1388,-184.5001"/>
</g>
<!-- AppRoutingModule&#45;&gt;AppModule -->
<g id="edge47" class="edge">
<title>AppRoutingModule&#45;&gt;AppModule</title>
<path fill="none" stroke="#000000" d="M368.5376,-122.3228C368.5376,-145.6602 368.5376,-183 368.5376,-183 368.5376,-183 3204.0689,-183 3204.0689,-183"/>
<polygon fill="#000000" stroke="#000000" points="3204.0689,-186.5001 3214.0689,-183 3204.0688,-179.5001 3204.0689,-186.5001"/>
</g>
<!-- SmsClientModule -->
<g id="node41" class="node">
<title>SmsClientModule</title>
<polygon fill="#8dd3c7" stroke="#000000" points="307.8907,-122 304.8907,-126 283.8907,-126 280.8907,-122 190.1093,-122 190.1093,-86 307.8907,-86 307.8907,-122"/>
<text text-anchor="middle" x="249" y="-99.8" font-family="Times,serif" font-size="14.00" fill="#000000">SmsClientModule</text>
</g>
<!-- SmsClientModule&#45;&gt;AppModule -->
<g id="edge48" class="edge">
<title>SmsClientModule&#45;&gt;AppModule</title>
<path fill="none" stroke="#000000" d="M249,-122.1532C249,-145.7566 249,-184 249,-184 249,-184 3204.0661,-184 3204.0661,-184"/>
<polygon fill="#000000" stroke="#000000" points="3204.0662,-187.5001 3214.0661,-184 3204.0661,-180.5001 3204.0662,-187.5001"/>
</g>
<!-- CognitoService -->
<g id="node43" class="node">
<title>CognitoService</title>
<ellipse fill="#fdb462" stroke="#000000" cx="95" cy="-104" rx="71.2268" ry="18"/>
<text text-anchor="middle" x="95" y="-99.8" font-family="Times,serif" font-size="14.00" fill="#000000">CognitoService</text>
</g>
<!-- CognitoService&#45;&gt;AppModule -->
<g id="edge50" class="edge">
<title>CognitoService&#45;&gt;AppModule</title>
<path fill="none" stroke="#000000" d="M95,-122.1985C95,-146.3563 95,-186 95,-186 95,-186 3204.2933,-186 3204.2933,-186"/>
<polygon fill="#000000" stroke="#000000" points="3204.2933,-189.5001 3214.2933,-186 3204.2932,-182.5001 3204.2933,-189.5001"/>
</g>
</g>
</svg>
