<?xml version="1.0" encoding="UTF-8" standalone="no"?>
<!DOCTYPE svg PUBLIC "-//W3C//DTD SVG 1.1//EN"
 "http://www.w3.org/Graphics/SVG/1.1/DTD/svg11.dtd">
<!-- Generated by graphviz version 2.40.1 (20161225.0304)
 -->
<!-- Title: dependencies Pages: 1 -->
<svg width="1353pt" height="211pt"
 viewBox="0.00 0.00 1353.00 211.00" xmlns="http://www.w3.org/2000/svg" xmlns:xlink="http://www.w3.org/1999/xlink">
<g id="graph0" class="graph" transform="scale(1 1) rotate(0) translate(4 207)">
<title>dependencies</title>
<polygon fill="#ffffff" stroke="transparent" points="-4,4 -4,-207 1349,-207 1349,4 -4,4"/>
<text text-anchor="start" x="651.5091" y="-42.4" font-family="sans-serif" font-weight="bold" font-size="14.00" fill="#000000">Legend</text>
<polygon fill="#ffffb3" stroke="transparent" points="438.5,-10 438.5,-30 458.5,-30 458.5,-10 438.5,-10"/>
<text text-anchor="start" x="462.129" y="-15.4" font-family="sans-serif" font-size="14.00" fill="#000000"> &#160;Declarations</text>
<polygon fill="#8dd3c7" stroke="transparent" points="551.5,-10 551.5,-30 571.5,-30 571.5,-10 551.5,-10"/>
<text text-anchor="start" x="575.2251" y="-15.4" font-family="sans-serif" font-size="14.00" fill="#000000"> &#160;Module</text>
<polygon fill="#80b1d3" stroke="transparent" points="637.5,-10 637.5,-30 657.5,-30 657.5,-10 637.5,-10"/>
<text text-anchor="start" x="661.2812" y="-15.4" font-family="sans-serif" font-size="14.00" fill="#000000"> &#160;Bootstrap</text>
<polygon fill="#fdb462" stroke="transparent" points="734.5,-10 734.5,-30 754.5,-30 754.5,-10 734.5,-10"/>
<text text-anchor="start" x="758.1732" y="-15.4" font-family="sans-serif" font-size="14.00" fill="#000000"> &#160;Providers</text>
<polygon fill="#fb8072" stroke="transparent" points="830.5,-10 830.5,-30 850.5,-30 850.5,-10 830.5,-10"/>
<text text-anchor="start" x="854.2258" y="-15.4" font-family="sans-serif" font-size="14.00" fill="#000000"> &#160;Exports</text>
<g id="clust1" class="cluster">
<title>cluster_SmsClientModule</title>
<polygon fill="none" stroke="#000000" stroke-dasharray="1,5" points="8,-70 8,-195 1337,-195 1337,-70 8,-70"/>
</g>
<g id="clust6" class="cluster">
<title>cluster_SmsClientModule_providers</title>
<polygon fill="none" stroke="#000000" points="16,-78 16,-130 1329,-130 1329,-78 16,-78"/>
</g>
<!-- CohortService -->
<g id="node1" class="node">
<title>CohortService</title>
<ellipse fill="#fdb462" stroke="#000000" cx="1254" cy="-104" rx="66.6325" ry="18"/>
<text text-anchor="middle" x="1254" y="-99.8" font-family="Times,serif" font-size="14.00" fill="#000000">CohortService</text>
</g>
<!-- SmsClientModule -->
<g id="node8" class="node">
<title>SmsClientModule</title>
<polygon fill="#8dd3c7" stroke="#000000" points="754.8907,-187 751.8907,-191 730.8907,-191 727.8907,-187 637.1093,-187 637.1093,-151 754.8907,-151 754.8907,-187"/>
<text text-anchor="middle" x="696" y="-164.8" font-family="Times,serif" font-size="14.00" fill="#000000">SmsClientModule</text>
</g>
<!-- CohortService&#45;&gt;SmsClientModule -->
<g id="edge1" class="edge">
<title>CohortService&#45;&gt;SmsClientModule</title>
<path fill="none" stroke="#000000" d="M1254,-122.2921C1254,-144.2057 1254,-178 1254,-178 1254,-178 764.9241,-178 764.9241,-178"/>
<polygon fill="#000000" stroke="#000000" points="764.9241,-174.5001 754.9241,-178 764.924,-181.5001 764.9241,-174.5001"/>
</g>
<!-- SmsInterceptor -->
<g id="node2" class="node">
<title>SmsInterceptor</title>
<ellipse fill="#fdb462" stroke="#000000" cx="1099" cy="-104" rx="70.0596" ry="18"/>
<text text-anchor="middle" x="1099" y="-99.8" font-family="Times,serif" font-size="14.00" fill="#000000">SmsInterceptor</text>
</g>
<!-- SmsInterceptor&#45;&gt;SmsClientModule -->
<g id="edge2" class="edge">
<title>SmsInterceptor&#45;&gt;SmsClientModule</title>
<path fill="none" stroke="#000000" d="M1099,-122.1061C1099,-141.3391 1099,-169 1099,-169 1099,-169 765.0313,-169 765.0313,-169"/>
<polygon fill="#000000" stroke="#000000" points="765.0313,-165.5001 755.0313,-169 765.0312,-172.5001 765.0313,-165.5001"/>
</g>
<!-- SurveyAnswerService -->
<g id="node3" class="node">
<title>SurveyAnswerService</title>
<ellipse fill="#fdb462" stroke="#000000" cx="914" cy="-104" rx="97.2509" ry="18"/>
<text text-anchor="middle" x="914" y="-99.8" font-family="Times,serif" font-size="14.00" fill="#000000">SurveyAnswerService</text>
</g>
<!-- SurveyAnswerService&#45;&gt;SmsClientModule -->
<g id="edge3" class="edge">
<title>SurveyAnswerService&#45;&gt;SmsClientModule</title>
<path fill="none" stroke="#000000" d="M914,-122.027C914,-138.3976 914,-160 914,-160 914,-160 764.9939,-160 764.9939,-160"/>
<polygon fill="#000000" stroke="#000000" points="764.994,-156.5001 754.9939,-160 764.9939,-163.5001 764.994,-156.5001"/>
</g>
<!-- SurveyQuestionService -->
<g id="node4" class="node">
<title>SurveyQuestionService</title>
<ellipse fill="#fdb462" stroke="#000000" cx="696" cy="-104" rx="102.4275" ry="18"/>
<text text-anchor="middle" x="696" y="-99.8" font-family="Times,serif" font-size="14.00" fill="#000000">SurveyQuestionService</text>
</g>
<!-- SurveyQuestionService&#45;&gt;SmsClientModule -->
<g id="edge4" class="edge">
<title>SurveyQuestionService&#45;&gt;SmsClientModule</title>
<path fill="none" stroke="#000000" d="M696,-122.1061C696,-122.1061 696,-140.991 696,-140.991"/>
<polygon fill="#000000" stroke="#000000" points="692.5001,-140.9909 696,-150.991 699.5001,-140.991 692.5001,-140.9909"/>
</g>
<!-- SurveyResponseService -->
<g id="node5" class="node">
<title>SurveyResponseService</title>
<ellipse fill="#fdb462" stroke="#000000" cx="471" cy="-104" rx="104.2149" ry="18"/>
<text text-anchor="middle" x="471" y="-99.8" font-family="Times,serif" font-size="14.00" fill="#000000">SurveyResponseService</text>
</g>
<!-- SurveyResponseService&#45;&gt;SmsClientModule -->
<g id="edge5" class="edge">
<title>SurveyResponseService&#45;&gt;SmsClientModule</title>
<path fill="none" stroke="#000000" d="M471,-122.027C471,-138.3976 471,-160 471,-160 471,-160 626.8839,-160 626.8839,-160"/>
<polygon fill="#000000" stroke="#000000" points="626.8839,-163.5001 636.8839,-160 626.8839,-156.5001 626.8839,-163.5001"/>
</g>
<!-- SurveyService -->
<g id="node6" class="node">
<title>SurveyService</title>
<ellipse fill="#fdb462" stroke="#000000" cx="281" cy="-104" rx="67.1946" ry="18"/>
<text text-anchor="middle" x="281" y="-99.8" font-family="Times,serif" font-size="14.00" fill="#000000">SurveyService</text>
</g>
<!-- SurveyService&#45;&gt;SmsClientModule -->
<g id="edge6" class="edge">
<title>SurveyService&#45;&gt;SmsClientModule</title>
<path fill="none" stroke="#000000" d="M281,-122.1061C281,-141.3391 281,-169 281,-169 281,-169 626.9813,-169 626.9813,-169"/>
<polygon fill="#000000" stroke="#000000" points="626.9814,-172.5001 636.9813,-169 626.9813,-165.5001 626.9814,-172.5001"/>
</g>
<!-- UsersClientService -->
<g id="node7" class="node">
<title>UsersClientService</title>
<ellipse fill="#fdb462" stroke="#000000" cx="110" cy="-104" rx="85.6647" ry="18"/>
<text text-anchor="middle" x="110" y="-99.8" font-family="Times,serif" font-size="14.00" fill="#000000">UsersClientService</text>
</g>
<!-- UsersClientService&#45;&gt;SmsClientModule -->
<g id="edge7" class="edge">
<title>UsersClientService&#45;&gt;SmsClientModule</title>
<path fill="none" stroke="#000000" d="M110,-122.2921C110,-144.2057 110,-178 110,-178 110,-178 626.8579,-178 626.8579,-178"/>
<polygon fill="#000000" stroke="#000000" points="626.858,-181.5001 636.8579,-178 626.8579,-174.5001 626.858,-181.5001"/>
</g>
</g>
</svg>
